<svg width="109" height="133" viewBox="0 0 109 133" fill="none" xmlns="http://www.w3.org/2000/svg">
<path d="M54.1024 132.323C48.7099 132.323 43.3612 132.323 37.9686 132.323C37.1794 132.323 36.478 132.147 35.8203 131.663C24.2899 123.479 12.7156 115.339 1.14137 107.244C0.264536 106.628 -0.0423571 105.924 0.0453267 104.868C0.746798 94.2642 1.40443 83.6607 2.06206 73.0571C2.67584 63.3775 3.33347 53.654 3.9911 43.9744C3.9911 43.6664 4.07879 43.2264 4.25415 43.0944C5.17483 42.5224 5.13099 41.5545 5.30636 40.7185C6.79698 33.5028 9.29597 26.6391 13.6363 20.6114C20.4318 11.1958 29.6825 5.25604 40.906 2.44016C53.0941 -0.63971 64.9752 0.372249 76.3741 5.60802C85.011 9.56785 91.9818 15.5516 96.8045 23.8672C99.9611 29.367 101.978 35.3067 103.205 41.5545C103.293 42.0385 103.731 42.4784 103.951 42.9184C104.126 43.2264 104.301 43.5344 104.345 43.8864C104.871 52.07 105.397 60.2537 105.924 68.3933C106.45 76.753 107.02 85.1126 107.59 93.5162C107.853 97.4321 108.072 101.348 108.335 105.308C108.379 106.188 107.984 106.76 107.283 107.244C95.7522 115.339 84.2218 123.479 72.6914 131.619C71.9022 132.191 71.1569 132.411 70.1924 132.411C64.7999 132.323 59.4511 132.323 54.1024 132.323ZM6.44625 104.956C6.49009 104.736 6.53394 104.516 6.57778 104.296C6.79699 101.656 6.97235 99.06 7.19156 96.4201C7.62998 90.9204 8.0684 85.4206 8.50682 79.8768C8.94524 74.4211 9.33981 68.9213 9.77823 63.4655C9.9536 61.5296 9.99744 61.5296 11.8826 61.6176C18.6343 61.9256 24.1145 64.7415 28.2795 70.0212C31.8307 74.4651 33.8913 79.6568 35.3381 85.0686C37.7055 93.9562 38.5824 103.02 39.0208 112.171C39.24 116.747 39.2838 121.323 39.3715 125.899C39.3715 126.647 39.6346 126.955 40.3799 126.955C41.2567 126.911 42.1336 126.911 43.0104 126.955C43.8873 126.999 44.2818 126.691 44.2818 125.723C44.2818 104.956 44.2818 84.2326 44.2818 63.4655C44.2818 62.6296 44.0188 62.1456 43.1419 61.9256C32.7514 59.1537 22.4486 56.0738 11.7073 55.1059C10.962 55.0179 10.7866 54.7099 10.8304 54.0499C10.8743 52.246 10.8743 50.4861 10.9181 48.6822C10.962 47.1422 10.962 47.1422 12.5403 47.1422C40.3361 47.1422 68.1757 47.1422 95.9715 47.1422C96.1907 47.1422 96.4099 47.1422 96.6729 47.1422C97.2867 47.0982 97.5498 47.3622 97.5498 47.9782C97.5498 50.0021 97.5936 52.026 97.6813 54.0059C97.7251 54.7979 97.4182 55.0179 96.6729 55.0619C95.0069 55.1939 93.3848 55.3699 91.7626 55.6339C83.0381 57.0858 74.4889 59.3297 65.9836 61.7056C64.2299 62.1896 64.2299 62.1896 64.2299 64.0375C64.2299 82.2087 64.2299 100.424 64.2299 118.595C64.2299 120.927 64.2299 123.259 64.2299 125.635C64.2299 126.823 64.3176 126.955 65.4575 126.955C66.2028 126.955 66.9481 126.955 67.6934 126.955C69.0087 126.955 69.0525 126.911 69.0964 125.591C69.1841 121.719 69.2279 117.847 69.3594 113.975C69.6663 105.924 70.3239 97.872 71.9461 89.9524C73.1298 84.1446 74.8397 78.5129 77.8648 73.3211C80.4514 68.9213 83.8711 65.4454 88.606 63.3335C91.5434 62.0576 94.6124 61.5736 97.769 61.3976C98.4266 61.3536 98.5581 61.7496 98.602 62.3216C98.7335 64.3895 98.9089 66.4574 99.0842 68.5253C99.5665 74.773 100.049 81.0208 100.531 87.2685C100.969 92.7243 101.364 98.18 101.759 103.592C101.802 103.988 101.846 104.384 101.934 104.824C103.556 104.208 104.038 103.46 103.951 101.964C103.381 94.2642 102.811 86.6085 102.285 78.9089C101.452 67.6453 100.663 56.4258 99.8295 45.1623C99.7419 43.7544 99.7419 43.7544 98.3389 43.7544C69.2717 43.7544 40.2045 43.7544 11.1373 43.7544C10.6989 43.7544 10.3043 43.7984 9.86592 43.7544C9.07677 43.7104 8.81372 44.0184 8.76987 44.8103C8.15609 53.522 7.49846 62.1896 6.88467 70.8572C6.13936 81.2408 5.39405 91.6243 4.60489 101.964C4.34184 103.592 4.91178 104.384 6.44625 104.956Z" fill="#E4E4E4"/>
</svg>
