<svg width="54" height="66" viewBox="0 0 54 66" fill="none" xmlns="http://www.w3.org/2000/svg">
<path d="M26.6294 65.2288C23.9967 65.2288 21.3854 65.2288 18.7527 65.2288C18.3674 65.2288 18.0249 65.1429 17.7038 64.9066C12.0746 60.9112 6.42389 56.9374 0.773203 52.985C0.345121 52.6843 0.195292 52.3406 0.238101 51.8251C0.580566 46.6483 0.901629 41.4715 1.22269 36.2948C1.52235 31.5691 1.84341 26.8219 2.16447 22.0963C2.16447 21.9459 2.20728 21.7311 2.2929 21.6666C2.74238 21.3874 2.72098 20.9148 2.80659 20.5067C3.53433 16.9839 4.75437 13.633 6.87337 10.6902C10.191 6.09339 14.7073 3.19355 20.1867 1.8188C26.1371 0.31518 31.9376 0.809229 37.5026 3.36539C41.7192 5.29862 45.1225 8.21995 47.477 12.2797C49.0181 14.9648 50.0026 17.8646 50.602 20.9148C50.6448 21.1511 50.8588 21.3659 50.9658 21.5807C51.0514 21.7311 51.1371 21.8814 51.1585 22.0533C51.4153 26.0486 51.6722 30.044 51.929 34.0178C52.1859 38.0991 52.4641 42.1804 52.7424 46.2831C52.8708 48.1949 52.9778 50.1066 53.1062 52.0399C53.1276 52.4695 52.935 52.7487 52.5925 52.985C46.9633 56.9374 41.334 60.9112 35.7047 64.8851C35.3194 65.1643 34.9556 65.2717 34.4847 65.2717C31.852 65.2288 29.2407 65.2288 26.6294 65.2288ZM3.3631 51.868C3.3845 51.7606 3.40591 51.6532 3.42731 51.5458C3.53433 50.257 3.61995 48.9896 3.72697 47.7008C3.94101 45.0158 4.15505 42.3307 4.36909 39.6242C4.58313 36.9607 4.77577 34.2756 4.98981 31.612C5.07543 30.6669 5.09683 30.6669 6.01721 30.7099C9.31344 30.8602 11.989 32.235 14.0223 34.8126C15.7561 36.9821 16.7621 39.5168 17.4684 42.1589C18.6242 46.4979 19.0523 50.9229 19.2663 55.3908C19.3734 57.6247 19.3948 59.8587 19.4376 62.0927C19.4376 62.4578 19.566 62.6082 19.9299 62.6082C20.358 62.5867 20.786 62.5867 21.2141 62.6082C21.6422 62.6297 21.8348 62.4793 21.8348 62.0067C21.8348 51.868 21.8348 41.7508 21.8348 31.612C21.8348 31.2039 21.7064 30.9676 21.2783 30.8602C16.2056 29.507 11.1756 28.0033 5.93159 27.5308C5.56772 27.4878 5.48211 27.3375 5.50351 27.0152C5.52492 26.1346 5.52491 25.2753 5.54632 24.3946C5.56772 23.6428 5.56772 23.6428 6.33827 23.6428C19.9085 23.6428 33.5001 23.6428 47.0703 23.6428C47.1773 23.6428 47.2843 23.6428 47.4127 23.6428C47.7124 23.6214 47.8408 23.7502 47.8408 24.051C47.8408 25.0391 47.8622 26.0272 47.905 26.9938C47.9264 27.3804 47.7766 27.4878 47.4127 27.5093C46.5994 27.5737 45.8074 27.6597 45.0155 27.7885C40.7561 28.4974 36.5823 29.5929 32.4299 30.7528C31.5737 30.9891 31.5737 30.9891 31.5737 31.8913C31.5737 40.7627 31.5737 49.6555 31.5737 58.5269C31.5737 59.6654 31.5737 60.8038 31.5737 61.9638C31.5737 62.5437 31.6165 62.6082 32.173 62.6082C32.5369 62.6082 32.9008 62.6082 33.2646 62.6082C33.9068 62.6082 33.9282 62.5867 33.9496 61.9423C33.9924 60.052 34.0138 58.1618 34.078 56.2715C34.2278 52.3406 34.5489 48.4097 35.3408 44.5432C35.9187 41.7078 36.7535 38.9583 38.2304 36.4236C39.4932 34.2756 41.1627 32.5787 43.4744 31.5476C44.9085 30.9247 46.4068 30.6884 47.9478 30.6025C48.2689 30.581 48.3331 30.7743 48.3545 31.0536C48.4187 32.0631 48.5044 33.0727 48.59 34.0823C48.8254 37.1325 49.0609 40.1827 49.2963 43.2329C49.5103 45.8965 49.703 48.56 49.8956 51.2021C49.917 51.3954 49.9384 51.5888 49.9812 51.8036C50.7732 51.5028 51.0086 51.1377 50.9658 50.4073C50.6876 46.6483 50.4093 42.9107 50.1525 39.1516C49.7458 33.6527 49.3605 28.1752 48.9538 22.6762C48.911 21.9888 48.911 21.9888 48.2261 21.9888C34.0352 21.9888 19.8443 21.9888 5.65334 21.9888C5.4393 21.9888 5.24666 22.0103 5.03262 21.9888C4.64735 21.9674 4.51892 22.1177 4.49752 22.5044C4.19786 26.7575 3.8768 30.9891 3.57714 35.2207C3.21327 40.2901 2.8494 45.3595 2.46413 50.4073C2.3357 51.2021 2.61396 51.5888 3.3631 51.868Z" fill="#E6A2FE"/>
</svg>
